<svg width="25" height="25" viewBox="0 0 25 25" fill="none" xmlns="http://www.w3.org/2000/svg">
<g clip-path="url(#clip0_204:170)">
<path d="M7.572 12H20.5463C20.8624 12 21.1187 12.2549 21.1187 12.569C21.1187 12.8831 20.8624 13.138 20.5463 13.138H7.572C7.25586 13.138 6.9996 12.8833 6.9996 12.569C6.9996 12.2547 7.25584 12 7.572 12Z" fill="#F5F5FF"/>
<path d="M6.16756 11.7426L11.7768 6.16657C12.0004 5.94448 12.3626 5.94448 12.5862 6.16657C12.8098 6.38886 12.8098 6.74921 12.5862 6.97131L7.3816 12.1451L12.5862 17.3189C12.8098 17.541 12.8098 17.9013 12.5862 18.1234C12.4744 18.2346 12.328 18.2901 12.1815 18.2901C12.035 18.2901 11.8886 18.2346 11.7768 18.1234L6.16756 12.5474C5.94393 12.3251 5.94393 11.9647 6.16756 11.7426Z" fill="#F5F5FF"/>
</g>
<rect x="0.5" y="0.5" width="23.4" height="23.2546" rx="5.5" stroke="#F5F5FF" stroke-opacity="0.3"/>
<defs>
<clipPath id="clip0_204:170">
<rect width="14.2333" height="14.1485" fill="white" transform="matrix(-1 0 0 1 19.3164 5.05305)"/>
</clipPath>
</defs>
</svg>
