<svg width="12" height="15" viewBox="0 0 12 15" fill="none" xmlns="http://www.w3.org/2000/svg">
<path d="M9.81818 5.5H3.81818V3C3.81818 2.46957 4.04805 1.96086 4.45722 1.58579C4.86639 1.21071 5.42135 1 6 1C6.57865 1 7.13361 1.21071 7.54278 1.58579C7.95195 1.96086 8.18182 2.46957 8.18182 3C8.18182 3.13261 8.23929 3.25979 8.34158 3.35355C8.44387 3.44732 8.58261 3.5 8.72727 3.5C8.87194 3.5 9.01068 3.44732 9.11297 3.35355C9.21526 3.25979 9.27273 3.13261 9.27273 3C9.27273 2.20435 8.92792 1.44129 8.31417 0.87868C7.70041 0.31607 6.86798 0 6 0C5.13202 0 4.29959 0.31607 3.68583 0.87868C3.07208 1.44129 2.72727 2.20435 2.72727 3V5.5H2.18182C1.60336 5.50058 1.04877 5.71148 0.639737 6.08643C0.230704 6.46137 0.000631655 6.96974 0 7.5V13C0.000631655 13.5303 0.230704 14.0386 0.639737 14.4136C1.04877 14.7885 1.60336 14.9994 2.18182 15H9.81818C10.3966 14.9994 10.9512 14.7885 11.3603 14.4136C11.7693 14.0386 11.9994 13.5303 12 13V7.5C11.9994 6.96974 11.7693 6.46137 11.3603 6.08643C10.9512 5.71148 10.3966 5.50058 9.81818 5.5V5.5Z" fill="#181824"/>
</svg>
