<svg width="154" height="112" viewBox="0 0 154 112" fill="none" xmlns="http://www.w3.org/2000/svg">
<path d="M30.2394 83.872V109H25.1994V92.656L18.4674 109H14.6514L7.88338 92.656V109H2.84338V83.872H8.56738L16.5594 102.556L24.5514 83.872H30.2394ZM44.0783 109.324C42.1583 109.324 40.4303 108.904 38.8943 108.064C37.3583 107.2 36.1463 105.988 35.2583 104.428C34.3943 102.868 33.9623 101.068 33.9623 99.028C33.9623 96.988 34.4063 95.188 35.2943 93.628C36.2063 92.068 37.4423 90.868 39.0023 90.028C40.5623 89.164 42.3023 88.732 44.2223 88.732C46.1423 88.732 47.8823 89.164 49.4423 90.028C51.0023 90.868 52.2263 92.068 53.1143 93.628C54.0263 95.188 54.4823 96.988 54.4823 99.028C54.4823 101.068 54.0143 102.868 53.0783 104.428C52.1663 105.988 50.9183 107.2 49.3343 108.064C47.7743 108.904 46.0223 109.324 44.0783 109.324ZM44.0783 104.932C44.9903 104.932 45.8423 104.716 46.6343 104.284C47.4503 103.828 48.0983 103.156 48.5783 102.268C49.0583 101.38 49.2983 100.3 49.2983 99.028C49.2983 97.132 48.7943 95.68 47.7863 94.672C46.8023 93.64 45.5903 93.124 44.1503 93.124C42.7103 93.124 41.4983 93.64 40.5143 94.672C39.5543 95.68 39.0743 97.132 39.0743 99.028C39.0743 100.924 39.5423 102.388 40.4783 103.42C41.4383 104.428 42.6383 104.932 44.0783 104.932ZM66.4953 104.356L71.5353 89.056H76.8993L69.5193 109H63.3993L56.0553 89.056H61.4553L66.4953 104.356ZM82.2861 86.68C81.3981 86.68 80.6541 86.404 80.0541 85.852C79.4781 85.276 79.1901 84.568 79.1901 83.728C79.1901 82.888 79.4781 82.192 80.0541 81.64C80.6541 81.064 81.3981 80.776 82.2861 80.776C83.1741 80.776 83.9061 81.064 84.4821 81.64C85.0821 82.192 85.3821 82.888 85.3821 83.728C85.3821 84.568 85.0821 85.276 84.4821 85.852C83.9061 86.404 83.1741 86.68 82.2861 86.68ZM84.7701 89.056V109H79.7301V89.056H84.7701ZM108.29 98.596C108.29 99.316 108.242 99.964 108.146 100.54H93.5656C93.6856 101.98 94.1896 103.108 95.0776 103.924C95.9656 104.74 97.0576 105.148 98.3536 105.148C100.226 105.148 101.558 104.344 102.35 102.736H107.786C107.21 104.656 106.106 106.24 104.474 107.488C102.842 108.712 100.838 109.324 98.4616 109.324C96.5416 109.324 94.8136 108.904 93.2776 108.064C91.7656 107.2 90.5776 105.988 89.7136 104.428C88.8736 102.868 88.4536 101.068 88.4536 99.028C88.4536 96.964 88.8736 95.152 89.7136 93.592C90.5536 92.032 91.7296 90.832 93.2416 89.992C94.7536 89.152 96.4936 88.732 98.4616 88.732C100.358 88.732 102.05 89.14 103.538 89.956C105.05 90.772 106.214 91.936 107.03 93.448C107.87 94.936 108.29 96.652 108.29 98.596ZM103.07 97.156C103.046 95.86 102.578 94.828 101.666 94.06C100.754 93.268 99.6376 92.872 98.3176 92.872C97.0696 92.872 96.0136 93.256 95.1496 94.024C94.3096 94.768 93.7936 95.812 93.6016 97.156H103.07Z" fill="black"/>
<path d="M120.644 109.252C118.892 109.252 117.308 108.952 115.892 108.352C114.5 107.752 113.396 106.888 112.58 105.76C111.764 104.632 111.344 103.3 111.32 101.764H116.72C116.792 102.796 117.152 103.612 117.8 104.212C118.472 104.812 119.384 105.112 120.536 105.112C121.712 105.112 122.636 104.836 123.308 104.284C123.98 103.708 124.316 102.964 124.316 102.052C124.316 101.308 124.088 100.696 123.632 100.216C123.176 99.736 122.6 99.364 121.904 99.1C121.232 98.812 120.296 98.5 119.096 98.164C117.464 97.684 116.132 97.216 115.1 96.76C114.092 96.28 113.216 95.572 112.472 94.636C111.752 93.676 111.392 92.404 111.392 90.82C111.392 89.332 111.764 88.036 112.508 86.932C113.252 85.828 114.296 84.988 115.64 84.412C116.984 83.812 118.52 83.512 120.248 83.512C122.84 83.512 124.94 84.148 126.548 85.42C128.18 86.668 129.08 88.42 129.248 90.676H123.704C123.656 89.812 123.284 89.104 122.588 88.552C121.916 87.976 121.016 87.688 119.888 87.688C118.904 87.688 118.112 87.94 117.512 88.444C116.936 88.948 116.648 89.68 116.648 90.64C116.648 91.312 116.864 91.876 117.296 92.332C117.752 92.764 118.304 93.124 118.952 93.412C119.624 93.676 120.56 93.988 121.76 94.348C123.392 94.828 124.724 95.308 125.756 95.788C126.788 96.268 127.676 96.988 128.42 97.948C129.164 98.908 129.536 100.168 129.536 101.728C129.536 103.072 129.188 104.32 128.492 105.472C127.796 106.624 126.776 107.548 125.432 108.244C124.088 108.916 122.492 109.252 120.644 109.252ZM152.446 98.596C152.446 99.316 152.398 99.964 152.302 100.54H137.722C137.842 101.98 138.346 103.108 139.234 103.924C140.122 104.74 141.214 105.148 142.51 105.148C144.382 105.148 145.714 104.344 146.506 102.736H151.942C151.366 104.656 150.262 106.24 148.63 107.488C146.998 108.712 144.994 109.324 142.618 109.324C140.698 109.324 138.97 108.904 137.434 108.064C135.922 107.2 134.734 105.988 133.87 104.428C133.03 102.868 132.61 101.068 132.61 99.028C132.61 96.964 133.03 95.152 133.87 93.592C134.71 92.032 135.886 90.832 137.398 89.992C138.91 89.152 140.65 88.732 142.618 88.732C144.514 88.732 146.206 89.14 147.694 89.956C149.206 90.772 150.37 91.936 151.186 93.448C152.026 94.936 152.446 96.652 152.446 98.596ZM147.226 97.156C147.202 95.86 146.734 94.828 145.822 94.06C144.91 93.268 143.794 92.872 142.474 92.872C141.226 92.872 140.17 93.256 139.306 94.024C138.466 94.768 137.95 95.812 137.758 97.156H147.226Z" fill="#181824" fill-opacity="0.8"/>
<path d="M121.664 9.06033L96.9525 26.7112L121.664 44.362V9.06033Z" fill="white"/>
<path d="M121.664 9.06033L96.9525 26.7112L121.664 44.362V9.06033Z" fill="#181824"/>
<path d="M121.664 9.06033L96.9525 26.7112L121.664 44.362V9.06033Z" stroke="#181824" stroke-width="4" stroke-linecap="round" stroke-linejoin="round"/>
<path d="M89.8922 2H51.0603C47.161 2 44 5.16102 44 9.06033V44.362C44 48.2613 47.161 51.4223 51.0603 51.4223H89.8922C93.7915 51.4223 96.9525 48.2613 96.9525 44.362V9.06033C96.9525 5.16102 93.7915 2 89.8922 2Z" fill="white"/>
<path d="M89.8922 2H51.0603C47.161 2 44 5.16102 44 9.06033V44.362C44 48.2613 47.161 51.4223 51.0603 51.4223H89.8922C93.7915 51.4223 96.9525 48.2613 96.9525 44.362V9.06033C96.9525 5.16102 93.7915 2 89.8922 2Z" fill="#181824"/>
<path d="M89.8922 2H51.0603C47.161 2 44 5.16102 44 9.06033V44.362C44 48.2613 47.161 51.4223 51.0603 51.4223H89.8922C93.7915 51.4223 96.9525 48.2613 96.9525 44.362V9.06033C96.9525 5.16102 93.7915 2 89.8922 2Z" stroke="#181824" stroke-width="4" stroke-linecap="round" stroke-linejoin="round"/>
</svg>
