<svg width="141" height="20" viewBox="0 0 141 20" fill="none" xmlns="http://www.w3.org/2000/svg">
<path d="M57.26 2.644V18H54.18V8.012L50.066 18H47.734L43.598 8.012V18H40.518V2.644H44.016L48.9 14.062L53.784 2.644H57.26ZM65.7171 18.198C64.5438 18.198 63.4878 17.9413 62.5491 17.428C61.6104 16.9 60.8698 16.1593 60.3271 15.206C59.7991 14.2527 59.5351 13.1527 59.5351 11.906C59.5351 10.6593 59.8064 9.55933 60.3491 8.606C60.9064 7.65267 61.6618 6.91933 62.6151 6.406C63.5684 5.878 64.6318 5.614 65.8051 5.614C66.9784 5.614 68.0418 5.878 68.9951 6.406C69.9484 6.91933 70.6964 7.65267 71.2391 8.606C71.7964 9.55933 72.0751 10.6593 72.0751 11.906C72.0751 13.1527 71.7891 14.2527 71.2171 15.206C70.6598 16.1593 69.8971 16.9 68.9291 17.428C67.9758 17.9413 66.9051 18.198 65.7171 18.198ZM65.7171 15.514C66.2744 15.514 66.7951 15.382 67.2791 15.118C67.7778 14.8393 68.1738 14.4287 68.4671 13.886C68.7604 13.3433 68.9071 12.6833 68.9071 11.906C68.9071 10.7473 68.5991 9.86 67.9831 9.244C67.3818 8.61333 66.6411 8.298 65.7611 8.298C64.8811 8.298 64.1404 8.61333 63.5391 9.244C62.9524 9.86 62.6591 10.7473 62.6591 11.906C62.6591 13.0647 62.9451 13.9593 63.5171 14.59C64.1038 15.206 64.8371 15.514 65.7171 15.514ZM79.4164 15.162L82.4964 5.812H85.7744L81.2644 18H77.5244L73.0364 5.812H76.3364L79.4164 15.162ZM89.0663 4.36C88.5237 4.36 88.069 4.19133 87.7023 3.854C87.3503 3.502 87.1743 3.06933 87.1743 2.556C87.1743 2.04267 87.3503 1.61733 87.7023 1.28C88.069 0.927999 88.5237 0.751999 89.0663 0.751999C89.609 0.751999 90.0563 0.927999 90.4083 1.28C90.775 1.61733 90.9583 2.04267 90.9583 2.556C90.9583 3.06933 90.775 3.502 90.4083 3.854C90.0563 4.19133 89.609 4.36 89.0663 4.36ZM90.5843 5.812V18H87.5043V5.812H90.5843ZM104.957 11.642C104.957 12.082 104.928 12.478 104.869 12.83H95.9594C96.0327 13.71 96.3407 14.3993 96.8834 14.898C97.426 15.3967 98.0934 15.646 98.8854 15.646C100.029 15.646 100.843 15.1547 101.327 14.172H104.649C104.297 15.3453 103.623 16.3133 102.625 17.076C101.628 17.824 100.403 18.198 98.9514 18.198C97.778 18.198 96.722 17.9413 95.7834 17.428C94.8594 16.9 94.1334 16.1593 93.6054 15.206C93.092 14.2527 92.8354 13.1527 92.8354 11.906C92.8354 10.6447 93.092 9.53733 93.6054 8.584C94.1187 7.63067 94.8374 6.89733 95.7614 6.384C96.6854 5.87067 97.7487 5.614 98.9514 5.614C100.11 5.614 101.144 5.86333 102.053 6.362C102.977 6.86067 103.689 7.572 104.187 8.496C104.701 9.40533 104.957 10.454 104.957 11.642ZM101.767 10.762C101.753 9.97 101.467 9.33933 100.909 8.87C100.352 8.386 99.67 8.144 98.8634 8.144C98.1007 8.144 97.4554 8.37867 96.9274 8.848C96.414 9.30267 96.0987 9.94067 95.9814 10.762H101.767Z" fill="#181824"/>
<path d="M112.508 18.154C111.437 18.154 110.469 17.9707 109.604 17.604C108.753 17.2373 108.078 16.7093 107.58 16.02C107.081 15.3307 106.824 14.5167 106.81 13.578H110.11C110.154 14.2087 110.374 14.7073 110.77 15.074C111.18 15.4407 111.738 15.624 112.442 15.624C113.16 15.624 113.725 15.4553 114.136 15.118C114.546 14.766 114.752 14.3113 114.752 13.754C114.752 13.2993 114.612 12.9253 114.334 12.632C114.055 12.3387 113.703 12.1113 113.278 11.95C112.867 11.774 112.295 11.5833 111.562 11.378C110.564 11.0847 109.75 10.7987 109.12 10.52C108.504 10.2267 107.968 9.794 107.514 9.222C107.074 8.63533 106.854 7.858 106.854 6.89C106.854 5.98067 107.081 5.18867 107.536 4.514C107.99 3.83933 108.628 3.326 109.45 2.974C110.271 2.60733 111.21 2.424 112.266 2.424C113.85 2.424 115.133 2.81267 116.116 3.59C117.113 4.35267 117.663 5.42333 117.766 6.802H114.378C114.348 6.274 114.121 5.84133 113.696 5.504C113.285 5.152 112.735 4.976 112.046 4.976C111.444 4.976 110.96 5.13 110.594 5.438C110.242 5.746 110.066 6.19333 110.066 6.78C110.066 7.19067 110.198 7.53533 110.462 7.814C110.74 8.078 111.078 8.298 111.474 8.474C111.884 8.63533 112.456 8.826 113.19 9.046C114.187 9.33933 115.001 9.63267 115.632 9.926C116.262 10.2193 116.805 10.6593 117.26 11.246C117.714 11.8327 117.942 12.6027 117.942 13.556C117.942 14.3773 117.729 15.14 117.303 15.844C116.878 16.548 116.255 17.1127 115.434 17.538C114.612 17.9487 113.637 18.154 112.508 18.154ZM131.942 11.642C131.942 12.082 131.912 12.478 131.854 12.83H122.944C123.017 13.71 123.325 14.3993 123.868 14.898C124.41 15.3967 125.078 15.646 125.87 15.646C127.014 15.646 127.828 15.1547 128.312 14.172H131.634C131.282 15.3453 130.607 16.3133 129.61 17.076C128.612 17.824 127.388 18.198 125.936 18.198C124.762 18.198 123.706 17.9413 122.768 17.428C121.844 16.9 121.118 16.1593 120.59 15.206C120.076 14.2527 119.82 13.1527 119.82 11.906C119.82 10.6447 120.076 9.53733 120.59 8.584C121.103 7.63067 121.822 6.89733 122.746 6.384C123.67 5.87067 124.733 5.614 125.936 5.614C127.094 5.614 128.128 5.86333 129.038 6.362C129.962 6.86067 130.673 7.572 131.172 8.496C131.685 9.40533 131.942 10.454 131.942 11.642ZM128.752 10.762C128.737 9.97 128.451 9.33933 127.894 8.87C127.336 8.386 126.654 8.144 125.848 8.144C125.085 8.144 124.44 8.37867 123.912 8.848C123.398 9.30267 123.083 9.94067 122.966 10.762H128.752Z" fill="#181824" fill-opacity="0.8"/>
<path d="M25.9999 5.14285L18.3635 10.5L25.9999 15.8571V5.14285Z" fill="white"/>
<path d="M25.9999 5.14285L18.3635 10.5L25.9999 15.8571V5.14285Z" fill="#181824"/>
<path d="M25.9999 5.14285L18.3635 10.5L25.9999 15.8571V5.14285Z" stroke="#181824" stroke-width="4" stroke-linecap="round" stroke-linejoin="round"/>
<path d="M16.1818 3H4.18182C2.97683 3 2 3.95939 2 5.14286V15.8571C2 17.0406 2.97683 18 4.18182 18H16.1818C17.3868 18 18.3636 17.0406 18.3636 15.8571V5.14286C18.3636 3.95939 17.3868 3 16.1818 3Z" fill="white"/>
<path d="M16.1818 3H4.18182C2.97683 3 2 3.95939 2 5.14286V15.8571C2 17.0406 2.97683 18 4.18182 18H16.1818C17.3868 18 18.3636 17.0406 18.3636 15.8571V5.14286C18.3636 3.95939 17.3868 3 16.1818 3Z" fill="#181824"/>
<path d="M16.1818 3H4.18182C2.97683 3 2 3.95939 2 5.14286V15.8571C2 17.0406 2.97683 18 4.18182 18H16.1818C17.3868 18 18.3636 17.0406 18.3636 15.8571V5.14286C18.3636 3.95939 17.3868 3 16.1818 3Z" stroke="#181824" stroke-width="4" stroke-linecap="round" stroke-linejoin="round"/>
</svg>
